<?xml version="1.0" encoding="iso-8859-1"?>
<!-- Uploaded to: SVG Repo, www.svgrepo.com, Generator: SVG Repo Mixer Tools -->
<svg height="800px" width="800px" version="1.1" id="Layer_1" xmlns="http://www.w3.org/2000/svg"
	xmlns:xlink="http://www.w3.org/1999/xlink"
	viewBox="0 0 512 512" xml:space="preserve">
<g>
	<path style="fill:#F78A68;" d="M488.332,346.017c2.821,2.769,0.872,7.577-3.09,7.59l-105.839,0.308
		c18.27-22.963,30.232-51.156,33.335-81.966L488.332,346.017z"/>
	<path style="fill:#F78A68;" d="M483.922,155.367c3.962-0.038,5.987,4.744,3.192,7.552l-74.606,75.017
		c-3.5-30.694-15.834-58.721-34.399-81.453l0.013-0.013L483.922,155.367z"/>
</g>
<path style="fill:#F0C419;" d="M413.534,256c0,5.385-0.269,10.706-0.795,15.95c-3.103,30.809-15.065,59.003-33.335,81.966
	c-7.064,8.911-15.078,17.026-23.886,24.206c-22.732,18.552-50.759,30.886-81.453,34.386h-0.013
	c-5.923,0.68-11.949,1.026-18.052,1.026c-5.385,0-10.718-0.269-15.962-0.795c-30.809-3.103-59.003-15.078-81.966-33.348
	c-8.898-7.052-17.014-15.065-24.194-23.873c-18.565-22.745-30.886-50.759-34.386-81.466v-0.013
	c-0.68-5.923-1.026-11.936-1.026-18.039c0-5.385,0.269-10.718,0.795-15.962c3.103-30.809,15.078-59.003,33.348-81.966
	c7.052-8.898,15.065-17.001,23.86-24.181c22.732-18.565,50.759-30.899,81.466-34.399h0.013c5.923-0.68,11.949-1.026,18.052-1.026
	c5.385,0,10.706,0.269,15.95,0.795c30.809,3.103,59.003,15.065,81.966,33.322c8.911,7.077,17.026,15.09,24.194,23.899
	c18.565,22.732,30.899,50.759,34.399,81.453C413.187,243.858,413.534,249.897,413.534,256z"/>
<g>
	<path style="fill:#F78A68;" d="M356.62,483.922c0.038,3.962-4.744,5.987-7.552,3.192l-75.004-74.606
		c30.694-3.5,58.721-15.834,81.453-34.386L356.62,483.922z"/>
	<path style="fill:#F78A68;" d="M353.607,26.745l0.308,105.839c-22.963-18.257-51.156-30.219-81.966-33.322l74.068-75.594
		C348.787,20.834,353.595,22.796,353.607,26.745z"/>
	<path style="fill:#F78A68;" d="M240.038,412.739l-74.068,75.594c-2.769,2.821-7.577,0.872-7.59-3.09l-0.308-105.851
		C181.035,397.661,209.228,409.636,240.038,412.739z"/>
	<path style="fill:#F78A68;" d="M162.918,24.886l75.017,74.606c-30.707,3.5-58.734,15.834-81.466,34.399l-1.103-105.826
		C155.328,24.104,160.111,22.091,162.918,24.886z"/>
	<path style="fill:#F78A68;" d="M133.878,355.518L28.066,356.62c-3.962,0.038-5.975-4.744-3.18-7.552l74.606-75.017
		C102.992,304.759,115.313,332.773,133.878,355.518z"/>
	<path style="fill:#F78A68;" d="M26.745,158.38l105.864-0.308c-18.27,22.963-30.245,51.156-33.348,81.966L23.668,165.97
		C20.834,163.2,22.796,158.393,26.745,158.38z"/>
</g>
<path d="M10.781,156.324c-2.644,6.514-1.103,13.901,3.913,18.804l71.313,69.873c-0.232,3.658-0.363,7.336-0.363,10.999
	c0,4.425,0.185,8.865,0.524,13.266l-70.371,70.757c-4.959,4.984-6.402,12.388-3.673,18.865c2.707,6.426,8.932,10.553,15.906,10.553
	c0.055,0,0.112,0,0.167-0.001l99.808-1.041c5.348,6.087,11.125,11.789,17.261,17.035l0.29,99.849
	c0.023,7.025,4.243,13.275,10.749,15.921c2.119,0.863,4.332,1.282,6.522,1.282c4.535,0,8.975-1.798,12.297-5.182l69.874-71.313
	c3.658,0.232,7.336,0.363,10.999,0.363c4.427,0,8.87-0.185,13.278-0.524l70.745,70.369c3.307,3.292,7.681,5.035,12.144,5.035
	c2.258,0,4.539-0.446,6.714-1.363c6.484-2.731,10.629-9.04,10.561-16.084l-1.04-99.795c6.087-5.348,11.794-11.13,17.047-17.274
	l99.834-0.291c7.025-0.023,13.275-4.241,15.923-10.747c2.649-6.508,1.122-13.893-3.9-18.823l-71.313-69.873
	c0.232-3.655,0.363-7.33,0.363-10.986c0-4.434-0.186-8.876-0.526-13.278l70.371-70.757c4.957-4.98,6.397-12.381,3.669-18.859
	c-2.708-6.43-8.938-10.56-15.915-10.56c-0.055,0-0.112,0-0.168,0.001l-99.813,1.041c-5.33-6.072-11.104-11.776-17.256-17.042
	l-0.287-99.841c-0.023-7.029-4.248-13.279-10.765-15.924c-6.514-2.644-13.901-1.101-18.804,3.913l-69.875,71.314
	c-8.062-0.509-16.224-0.456-24.261,0.163l-70.759-70.37c-4.982-4.962-12.388-6.403-18.866-3.676
	c-6.479,2.728-10.62,9.034-10.552,16.074l1.041,99.824c-6.094,5.357-11.79,11.129-17.021,17.244l-99.86,0.291
	C19.675,145.582,13.425,149.807,10.781,156.324z M91.478,300.292c4.019,14.976,10.074,29.317,18.011,42.659l-61.07,0.636
	L91.478,300.292z M171.141,464.735l-0.177-61.106c13.452,7.77,27.885,13.642,42.934,17.469L171.141,464.735z M300.3,420.521
	c14.973-4.021,29.309-10.075,42.65-18.011l0.636,61.067L300.3,420.521z M403.638,341.023c7.766-13.449,13.635-27.881,17.46-42.933
	l43.636,42.755L403.638,341.023z M420.52,211.697c-4.022-14.979-10.08-29.321-18.021-42.66l61.081-0.636L420.52,211.697z
	 M340.845,47.265l0.178,61.09c-13.451-7.763-27.883-13.631-42.933-17.455L340.845,47.265z M270.665,112.017
	c27.554,2.776,53.582,13.357,75.277,30.607c8.181,6.496,15.657,13.881,22.237,21.968c17.535,21.472,28.459,47.336,31.59,74.796
	c0,0.004,0,0.006,0.001,0.01c0.624,5.448,0.942,11.034,0.942,16.602c0,4.896-0.246,9.833-0.731,14.665
	c-2.776,27.559-13.361,53.586-30.626,75.286c-6.468,8.158-13.849,15.639-21.945,22.238c-21.434,17.493-47.237,28.404-74.629,31.561
	c-0.063,0.006-0.127,0.014-0.19,0.022c-10.277,1.176-20.969,1.245-31.271,0.212c-27.548-2.775-53.574-13.365-75.287-30.639
	c-8.091-6.414-15.519-13.735-22.086-21.768c-0.122-0.155-0.241-0.31-0.369-0.459c-17.355-21.374-28.187-47.069-31.328-74.347
	c-0.006-0.064-0.013-0.128-0.021-0.191c-0.624-5.448-0.942-11.026-0.942-16.578c0-4.905,0.246-9.847,0.731-14.678
	c2.774-27.546,13.363-53.573,30.639-75.287c6.43-8.115,13.806-15.587,21.922-22.214c21.428-17.498,47.233-28.414,74.638-31.571
	c0.063-0.006,0.127-0.014,0.19-0.022C249.675,111.053,260.354,110.984,270.665,112.017z M211.695,91.479
	c-14.978,4.021-29.317,10.077-42.659,18.018l-0.637-61.076L211.695,91.479z M108.371,170.964
	c-7.77,13.453-13.642,27.885-17.469,42.934l-43.637-42.756L108.371,170.964z"/>
<path d="M224.692,296.889c-6.095,3.604-8.117,11.465-4.513,17.561c3.182,5.382,7.616,10.054,12.797,13.489
	c6.767,4.512,14.789,6.868,22.928,6.868c3.117,0,6.25-0.346,9.338-1.049c11.186-2.548,20.904-9.583,26.66-19.298
	c3.609-6.093,1.596-13.957-4.495-17.566c-6.091-3.608-13.957-1.598-17.566,4.495c-2.186,3.69-5.937,6.376-10.295,7.368
	c-4.378,0.997-8.766,0.233-12.372-2.171c-1.998-1.324-3.699-3.118-4.921-5.186C238.65,295.306,230.786,293.284,224.692,296.889z"/>
<path d="M237.82,247.615c0-23.973-19.504-43.477-43.477-43.477c-23.981,0-43.489,19.504-43.489,43.477
	c0,7.08,5.74,12.821,12.821,12.821s12.821-5.741,12.821-12.821c0-9.834,8.007-17.834,17.847-17.834c9.834,0,17.834,8,17.834,17.834
	c0,7.08,5.74,12.821,12.821,12.821S237.82,254.695,237.82,247.615z"/>
<path d="M287.643,260.436c7.081,0,12.821-5.741,12.821-12.821c0-9.834,8.007-17.834,17.847-17.834c9.834,0,17.834,8,17.834,17.834
	c0,7.08,5.74,12.821,12.821,12.821c7.081,0,12.821-5.741,12.821-12.821c0-23.973-19.504-43.477-43.477-43.477
	c-23.981,0-43.489,19.504-43.489,43.477C274.821,254.695,280.561,260.436,287.643,260.436z"/>
<path d="M272.924,42.348V12.821c0-7.08-5.74-12.821-12.821-12.821s-12.821,5.741-12.821,12.821v29.527
	c0,7.08,5.74,12.821,12.821,12.821S272.924,49.429,272.924,42.348z"/>
<path d="M42.348,264.706c7.081,0,12.821-5.741,12.821-12.821s-5.74-12.821-12.821-12.821H12.821C5.74,239.063,0,244.805,0,251.884
	s5.74,12.821,12.821,12.821H42.348z"/>
<path d="M239.063,469.652v29.527c0,7.08,5.74,12.821,12.821,12.821c7.081,0,12.821-5.741,12.821-12.821v-29.527
	c0-7.08-5.74-12.821-12.821-12.821C244.803,456.831,239.063,462.571,239.063,469.652z"/>
<path d="M392.104,397.587c-5.004,5.009-5.002,13.128,0.008,18.133l14.001,13.988c2.504,2.501,5.782,3.751,9.062,3.751
	c3.283,0,6.567-1.254,9.07-3.759c5.004-5.009,5.002-13.128-0.008-18.133l-14.001-13.988
	C405.227,392.572,397.108,392.577,392.104,397.587z"/>
<path d="M415.714,119.879l13.988-13.988c5.007-5.007,5.007-13.125,0-18.133c-5.007-5.005-13.125-5.005-18.133,0l-13.988,13.988
	c-5.007,5.007-5.007,13.125,0,18.133c2.504,2.503,5.785,3.755,9.066,3.755C409.928,123.634,413.212,122.382,415.714,119.879z"/>
<path d="M110.813,118.16c3.281,0,6.563-1.253,9.066-3.755c5.007-5.007,5.008-13.125,0-18.133l-13.988-13.988
	c-5.007-5.004-13.125-5.005-18.132,0c-5.007,5.007-5.008,13.125,0,18.133l13.988,13.988
	C104.25,116.908,107.531,118.16,110.813,118.16z"/>
<path d="M96.269,392.112l-13.988,14.001c-5.004,5.009-5.002,13.128,0.008,18.133c2.504,2.501,5.782,3.751,9.062,3.751
	c3.283,0,6.567-1.254,9.07-3.759l13.988-14.001c5.004-5.009,5.002-13.128-0.008-18.133
	C109.391,387.099,101.274,387.104,96.269,392.112z"/>
<path d="M499.179,247.282h-29.527c-7.081,0-12.821,5.741-12.821,12.821c0,7.08,5.74,12.821,12.821,12.821h29.527
	c7.081,0,12.821-5.741,12.821-12.821C512,253.023,506.26,247.282,499.179,247.282z"/>
<path d="M69.657,77.004c3.282,0,6.563-1.253,9.067-3.757c5.007-5.008,5.005-13.125-0.001-18.133l-2.59-2.59
	c-5.007-5.005-13.124-5.004-18.132,0.003c-5.007,5.008-5.005,13.125,0.001,18.133l2.59,2.59
	C63.095,75.753,66.376,77.004,69.657,77.004z"/>
<path d="M55.094,433.287l-2.59,2.603c-4.995,5.02-4.973,13.137,0.046,18.132c2.501,2.489,5.772,3.732,9.043,3.732
	c3.291,0,6.584-1.259,9.089-3.778l2.59-2.603c4.995-5.02,4.973-13.137-0.046-18.132S60.089,428.265,55.094,433.287z"/>
<path d="M433.265,438.736c-5.008,5.007-5.008,13.124-0.001,18.133l2.603,2.603c2.504,2.504,5.785,3.757,9.067,3.757
	c3.281,0,6.562-1.253,9.065-3.754c5.008-5.007,5.008-13.124,0.001-18.133l-2.603-2.603
	C446.39,433.732,438.272,433.732,433.265,438.736z"/>
<path d="M456.85,78.744l2.603-2.591c5.019-4.995,5.037-13.113,0.042-18.132s-13.113-5.037-18.132-0.041l-2.603,2.591
	c-5.02,4.995-5.037,13.113-0.042,18.132c2.505,2.517,5.796,3.776,9.086,3.776C451.076,82.478,454.348,81.234,456.85,78.744z"/>
</svg>